<svg xmlns="http://www.w3.org/2000/svg" xmlns:xlink="http://www.w3.org/1999/xlink" viewBox="0,0,256,256" width="48px" height="48px"><g fill-opacity="0" fill="#dddddd" fill-rule="nonzero" stroke="none" stroke-width="1" stroke-linecap="butt" stroke-linejoin="miter" stroke-miterlimit="10" stroke-dasharray="" stroke-dashoffset="0" font-family="none" font-weight="none" font-size="none" text-anchor="none" style="mix-blend-mode: normal"><path d="M0,256v-256h256v256z" id="bgRectangle"></path></g><g fill="none" fill-rule="nonzero" stroke="none" stroke-width="1" stroke-linecap="butt" stroke-linejoin="miter" stroke-miterlimit="10" stroke-dasharray="" stroke-dashoffset="0" font-family="none" font-weight="none" font-size="none" text-anchor="none" style="mix-blend-mode: normal"><g transform="scale(5.33333,5.33333)"><path d="M33,11c-7.1797,0 -13,5.8203 -13,13c0,7.1797 5.8203,13 13,13c7.1797,0 13,-5.8203 13,-13c0,-7.1797 -5.8203,-13 -13,-13z" fill="#f44336"></path><path d="M28,24h-8c0,-0.682 0.068,-1.347 0.169,-2h7.661c-0.105,-0.685 -0.255,-1.354 -0.464,-2h-6.732c0.225,-0.694 0.508,-1.362 0.84,-2h5.051c-0.369,-0.709 -0.804,-1.376 -1.293,-2h-2.465c0.379,-0.484 0.79,-0.941 1.233,-1.367c-0.226,-0.218 -0.455,-0.432 -0.696,-0.633c-2.252,-1.872 -5.146,-3 -8.304,-3c-7.18,0 -13,5.82 -13,13c0,7.18 5.82,13 13,13c3.496,0 6.664,-1.388 9,-3.633c0.443,-0.426 0.854,-0.883 1.232,-1.367h-2.465c-0.489,-0.624 -0.923,-1.291 -1.293,-2h5.051c0.333,-0.638 0.616,-1.306 0.841,-2h-6.732c-0.209,-0.646 -0.358,-1.315 -0.464,-2h7.661c0.101,-0.653 0.169,-1.318 0.169,-2z" fill="#2196f3"></path></g></g></svg>